<svg xmlns="http://www.w3.org/2000/svg" xmlns:xlink="http://www.w3.org/1999/xlink" width="393" zoomAndPan="magnify" viewBox="0 0 294.75 229.499994" height="306" preserveAspectRatio="xMidYMid meet" version="1.0"><defs><clipPath id="4f5d5e7e1e"><path d="M 9 10.183594 L 87.476562 10.183594 L 87.476562 173.832031 L 9 173.832031 Z M 9 10.183594 " clip-rule="nonzero"/></clipPath><clipPath id="9e459623c2"><path d="M 34.292969 84.003906 L 44.144531 84.003906 C 53.53125 84.003906 59.273438 79.824219 59.273438 66.792969 L 59.273438 50.738281 C 59.273438 39.113281 55.378906 33.992188 46.4375 33.992188 L 34.292969 33.992188 Z M 59.503906 153.535156 L 59.503906 127.949219 C 59.503906 112.839844 54.457031 107.257812 43.007812 107.257812 L 34.292969 107.257812 L 34.292969 173.535156 L 9.085938 173.535156 L 9.085938 10.757812 L 47.128906 10.757812 C 73.246094 10.757812 84.484375 23.078125 84.484375 48.195312 L 84.484375 60.980469 C 84.484375 77.726562 79.21875 88.660156 67.984375 93.996094 C 80.589844 99.34375 84.714844 111.664062 84.714844 128.644531 L 84.714844 153.765625 C 84.714844 161.675781 84.945312 167.488281 87.46875 173.535156 L 61.78125 173.535156 C 60.410156 169.339844 59.488281 166.796875 59.488281 153.535156 " clip-rule="nonzero"/></clipPath><clipPath id="49a9751726"><path d="M 0.0546875 0.535156 L 78.476562 0.535156 L 78.476562 163.621094 L 0.0546875 163.621094 Z M 0.0546875 0.535156 " clip-rule="nonzero"/></clipPath><clipPath id="dcbf79af55"><path d="M 25.292969 74.003906 L 35.144531 74.003906 C 44.53125 74.003906 50.273438 69.824219 50.273438 56.792969 L 50.273438 40.738281 C 50.273438 29.113281 46.378906 23.992188 37.4375 23.992188 L 25.292969 23.992188 Z M 50.503906 143.535156 L 50.503906 117.949219 C 50.503906 102.839844 45.457031 97.257812 34.007812 97.257812 L 25.292969 97.257812 L 25.292969 163.535156 L 0.0859375 163.535156 L 0.0859375 0.757812 L 38.128906 0.757812 C 64.246094 0.757812 75.484375 13.078125 75.484375 38.195312 L 75.484375 50.980469 C 75.484375 67.726562 70.21875 78.660156 58.984375 83.996094 C 71.589844 89.34375 75.714844 101.664062 75.714844 118.644531 L 75.714844 143.765625 C 75.714844 151.675781 75.945312 157.488281 78.46875 163.535156 L 52.78125 163.535156 C 51.410156 159.339844 50.488281 156.796875 50.488281 143.535156 " clip-rule="nonzero"/></clipPath><clipPath id="7b5ff64358"><rect x="0" width="79" y="0" height="164"/></clipPath><clipPath id="656e3b02b9"><path d="M 100.566406 8.726562 L 177.664062 8.726562 L 177.664062 176 L 100.566406 176 Z M 100.566406 8.726562 " clip-rule="nonzero"/></clipPath><clipPath id="d1c31915ab"><path d="M 139.238281 152.128906 C 147.257812 152.128906 152.308594 147.71875 152.308594 136.09375 L 152.308594 48.179688 C 152.308594 36.550781 147.257812 32.144531 139.238281 32.144531 C 131.222656 32.144531 126.171875 36.550781 126.171875 48.179688 L 126.171875 136.09375 C 126.171875 147.71875 131.222656 152.128906 139.238281 152.128906 M 139.238281 8.890625 C 163.988281 8.890625 177.5 23.769531 177.5 49.816406 L 177.5 134.457031 C 177.5 160.503906 163.988281 175.382812 139.238281 175.382812 C 114.492188 175.382812 100.964844 160.503906 100.964844 134.457031 L 100.964844 49.816406 C 100.964844 23.769531 114.492188 8.890625 139.238281 8.890625 " clip-rule="nonzero"/></clipPath><clipPath id="66a6e2fbe0"><path d="M 0.777344 0.859375 L 77.648438 0.859375 L 77.648438 167.539062 L 0.777344 167.539062 Z M 0.777344 0.859375 " clip-rule="nonzero"/></clipPath><clipPath id="6a1623d4bc"><path d="M 39.238281 144.128906 C 47.257812 144.128906 52.308594 139.71875 52.308594 128.09375 L 52.308594 40.179688 C 52.308594 28.550781 47.257812 24.144531 39.238281 24.144531 C 31.222656 24.144531 26.171875 28.550781 26.171875 40.179688 L 26.171875 128.09375 C 26.171875 139.71875 31.222656 144.128906 39.238281 144.128906 M 39.238281 0.890625 C 63.988281 0.890625 77.5 15.769531 77.5 41.816406 L 77.5 126.457031 C 77.5 152.503906 63.988281 167.382812 39.238281 167.382812 C 14.492188 167.382812 0.964844 152.503906 0.964844 126.457031 L 0.964844 41.816406 C 0.964844 15.769531 14.492188 0.890625 39.238281 0.890625 " clip-rule="nonzero"/></clipPath><clipPath id="01ee8f7dfa"><rect x="0" width="78" y="0" height="168"/></clipPath><clipPath id="9a4ad16fb9"><path d="M 10.382812 189.160156 L 23.003906 189.160156 L 23.003906 193.5 L 10.382812 193.5 Z M 10.382812 193.5 L 15.003906 193.5 L 15.003906 201.960938 L 10.382812 201.960938 Z M 10.382812 201.960938 L 21.371094 201.960938 L 21.371094 206.300781 L 10.382812 206.300781 Z M 10.382812 206.300781 L 15.003906 206.300781 L 15.003906 215.207031 L 10.382812 215.207031 Z M 10.382812 215.207031 L 23.003906 215.207031 L 23.003906 219.542969 L 10.382812 219.542969 Z M 10.382812 215.207031 " clip-rule="nonzero"/></clipPath><clipPath id="609f2e8052"><path d="M 0.382812 0.160156 L 13.003906 0.160156 L 13.003906 4.5 L 0.382812 4.5 Z M 0.382812 4.5 L 5.003906 4.5 L 5.003906 12.960938 L 0.382812 12.960938 Z M 0.382812 12.960938 L 11.371094 12.960938 L 11.371094 17.300781 L 0.382812 17.300781 Z M 0.382812 17.300781 L 5.003906 17.300781 L 5.003906 26.207031 L 0.382812 26.207031 Z M 0.382812 26.207031 L 13.003906 26.207031 L 13.003906 30.542969 L 0.382812 30.542969 Z M 0.382812 26.207031 " clip-rule="nonzero"/></clipPath><clipPath id="a200745435"><rect x="0" width="14" y="0" height="31"/></clipPath><clipPath id="1e315fc224"><path d="M 41 189.105469 L 57.65625 189.105469 L 57.65625 219.652344 L 41 219.652344 Z M 41 189.105469 " clip-rule="nonzero"/></clipPath><clipPath id="8446efff28"><path d="M 53.210938 189.160156 L 57.460938 189.160156 L 52.910156 219.542969 L 46.027344 219.542969 L 41.476562 189.160156 L 46.152344 189.160156 L 49.691406 213.945312 Z M 53.210938 189.160156 " clip-rule="nonzero"/></clipPath><clipPath id="f122e5c86b"><path d="M 0.386719 0.105469 L 16.65625 0.105469 L 16.65625 30.601562 L 0.386719 30.601562 Z M 0.386719 0.105469 " clip-rule="nonzero"/></clipPath><clipPath id="22dfa54634"><path d="M 12.210938 0.160156 L 16.460938 0.160156 L 11.910156 30.542969 L 5.027344 30.542969 L 0.476562 0.160156 L 5.152344 0.160156 L 8.691406 24.945312 Z M 12.210938 0.160156 " clip-rule="nonzero"/></clipPath><clipPath id="fb795ec0e3"><rect x="0" width="17" y="0" height="31"/></clipPath><clipPath id="598375765d"><path d="M 76.445312 189.160156 L 89.070312 189.160156 L 89.070312 193.5 L 76.445312 193.5 Z M 76.445312 193.5 L 81.070312 193.5 L 81.070312 201.960938 L 76.445312 201.960938 Z M 76.445312 201.960938 L 87.417969 201.960938 L 87.417969 206.300781 L 76.445312 206.300781 Z M 76.445312 206.300781 L 81.070312 206.300781 L 81.070312 215.207031 L 76.445312 215.207031 Z M 76.445312 215.207031 L 89.070312 215.207031 L 89.070312 219.542969 L 76.445312 219.542969 Z M 76.445312 215.207031 " clip-rule="nonzero"/></clipPath><clipPath id="6c0cbf7bb1"><path d="M 0.445312 0.160156 L 13.070312 0.160156 L 13.070312 4.5 L 0.445312 4.5 Z M 0.445312 4.5 L 5.070312 4.5 L 5.070312 12.960938 L 0.445312 12.960938 Z M 0.445312 12.960938 L 11.417969 12.960938 L 11.417969 17.300781 L 0.445312 17.300781 Z M 0.445312 17.300781 L 5.070312 17.300781 L 5.070312 26.207031 L 0.445312 26.207031 Z M 0.445312 26.207031 L 13.070312 26.207031 L 13.070312 30.542969 L 0.445312 30.542969 Z M 0.445312 26.207031 " clip-rule="nonzero"/></clipPath><clipPath id="23c3189e03"><rect x="0" width="14" y="0" height="31"/></clipPath><clipPath id="caef69dc03"><path d="M 108.566406 189.105469 L 123.839844 189.105469 L 123.839844 219.652344 L 108.566406 219.652344 Z M 108.566406 189.105469 " clip-rule="nonzero"/></clipPath><clipPath id="3ab68ec403"><path d="M 112.875 219.542969 L 108.714844 219.542969 L 108.714844 189.160156 L 114.511719 189.160156 L 119.257812 207.347656 L 119.257812 189.160156 L 123.382812 189.160156 L 123.382812 219.542969 L 118.636719 219.542969 L 112.875 197.535156 Z M 112.875 219.542969 " clip-rule="nonzero"/></clipPath><clipPath id="a59bcf95c8"><path d="M 0.679688 0.105469 L 15.527344 0.105469 L 15.527344 30.601562 L 0.679688 30.601562 Z M 0.679688 0.105469 " clip-rule="nonzero"/></clipPath><clipPath id="af54d45b07"><path d="M 4.875 30.542969 L 0.714844 30.542969 L 0.714844 0.160156 L 6.511719 0.160156 L 11.257812 18.347656 L 11.257812 0.160156 L 15.382812 0.160156 L 15.382812 30.542969 L 10.636719 30.542969 L 4.875 8.535156 Z M 4.875 30.542969 " clip-rule="nonzero"/></clipPath><clipPath id="75970e8e04"><rect x="0" width="16" y="0" height="31"/></clipPath><clipPath id="7ff4c10c41"><path d="M 142.191406 189.160156 L 156.503906 189.160156 L 156.503906 193.5 L 142.191406 193.5 Z M 147.042969 193.5 L 151.667969 193.5 L 151.667969 219.542969 L 147.042969 219.542969 Z M 147.042969 193.5 " clip-rule="nonzero"/></clipPath><clipPath id="684c2c4e99"><path d="M 0.191406 0.160156 L 14.503906 0.160156 L 14.503906 4.5 L 0.191406 4.5 Z M 5.042969 4.5 L 9.667969 4.5 L 9.667969 30.542969 L 5.042969 30.542969 Z M 5.042969 4.5 " clip-rule="nonzero"/></clipPath><clipPath id="c92ecea5ec"><rect x="0" width="15" y="0" height="31"/></clipPath><clipPath id="4190521b36"><path d="M 195.605469 10.75 L 220.816406 10.75 L 220.816406 150.273438 L 195.605469 150.273438 Z M 195.605469 150.273438 L 285.066406 150.273438 L 285.066406 173.527344 L 195.605469 173.527344 Z M 195.605469 150.273438 " clip-rule="nonzero"/></clipPath><clipPath id="abb56e193b"><path d="M 0.605469 0.75 L 25.816406 0.75 L 25.816406 140.273438 L 0.605469 140.273438 Z M 0.605469 140.273438 L 90.066406 140.273438 L 90.066406 163.527344 L 0.605469 163.527344 Z M 0.605469 140.273438 " clip-rule="nonzero"/></clipPath><clipPath id="0371879744"><rect x="0" width="91" y="0" height="164"/></clipPath><clipPath id="d7d8cd8785"><path d="M 235.871094 10.75 L 261.082031 10.75 L 261.082031 108.421875 L 235.871094 108.421875 Z M 235.871094 108.421875 L 285.066406 108.421875 L 285.066406 131.675781 L 235.871094 131.675781 Z M 235.871094 108.421875 " clip-rule="nonzero"/></clipPath><clipPath id="66a9216985"><path d="M 0.871094 0.75 L 26.082031 0.75 L 26.082031 98.421875 L 0.871094 98.421875 Z M 0.871094 98.421875 L 50.066406 98.421875 L 50.066406 121.675781 L 0.871094 121.675781 Z M 0.871094 98.421875 " clip-rule="nonzero"/></clipPath><clipPath id="7ba27d6ac0"><rect x="0" width="51" y="0" height="122"/></clipPath><clipPath id="e6cbeb0208"><path d="M 198.699219 189.15625 L 203.320312 189.15625 L 203.320312 215.199219 L 198.699219 215.199219 Z M 198.699219 215.199219 L 210.929688 215.199219 L 210.929688 219.539062 L 198.699219 219.539062 Z M 198.699219 215.199219 " clip-rule="nonzero"/></clipPath><clipPath id="e1bb278bf5"><path d="M 0.699219 0.15625 L 5.320312 0.15625 L 5.320312 26.199219 L 0.699219 26.199219 Z M 0.699219 26.199219 L 12.929688 26.199219 L 12.929688 30.539062 L 0.699219 30.539062 Z M 0.699219 26.199219 " clip-rule="nonzero"/></clipPath><clipPath id="c3bcf8a482"><rect x="0" width="13" y="0" height="31"/></clipPath><clipPath id="139ce8ca91"><path d="M 228.1875 189.113281 L 244.945312 189.113281 L 244.945312 219.691406 L 228.1875 219.691406 Z M 228.1875 189.113281 " clip-rule="nonzero"/></clipPath><clipPath id="713c1e3a49"><path d="M 238.664062 209.902344 L 236.441406 194.542969 L 234.21875 209.902344 Z M 240.085938 219.539062 L 239.285156 214.027344 L 233.613281 214.027344 L 232.816406 219.539062 L 228.566406 219.539062 L 233.277344 189.15625 L 240.050781 189.15625 L 244.761719 219.539062 Z M 240.085938 219.539062 " clip-rule="nonzero"/></clipPath><clipPath id="c51dd42d14"><path d="M 0.417969 0.113281 L 16.941406 0.113281 L 16.941406 30.601562 L 0.417969 30.601562 Z M 0.417969 0.113281 " clip-rule="nonzero"/></clipPath><clipPath id="8f8386acdd"><path d="M 10.664062 20.902344 L 8.441406 5.542969 L 6.21875 20.902344 Z M 12.085938 30.539062 L 11.285156 25.027344 L 5.613281 25.027344 L 4.816406 30.539062 L 0.566406 30.539062 L 5.277344 0.15625 L 12.050781 0.15625 L 16.761719 30.539062 Z M 12.085938 30.539062 " clip-rule="nonzero"/></clipPath><clipPath id="e5c56c651a"><rect x="0" width="17" y="0" height="31"/></clipPath><clipPath id="99ba5f0d31"><path d="M 263.375 189.113281 L 278.457031 189.113281 L 278.457031 219.691406 L 263.375 219.691406 Z M 263.375 189.113281 " clip-rule="nonzero"/></clipPath><clipPath id="69363bacdc"><path d="M 268.371094 215.199219 L 271.019531 215.199219 C 272.585938 215.199219 273.421875 214.472656 273.421875 212.214844 L 273.421875 209.5625 C 273.421875 206.738281 272.53125 205.882812 270.433594 205.882812 L 268.371094 205.882812 Z M 268.371094 201.527344 L 270.183594 201.527344 C 271.910156 201.527344 272.957031 200.746094 272.957031 198.308594 L 272.957031 196.621094 C 272.957031 194.453125 272.246094 193.492188 270.59375 193.492188 L 268.371094 193.492188 Z M 277.582031 196.140625 L 277.582031 197.226562 C 277.582031 200.355469 276.65625 202.347656 274.59375 203.339844 C 277.082031 204.335938 278.042969 206.628906 278.042969 209.847656 L 278.042969 212.320312 C 278.042969 217.011719 275.640625 219.519531 271.019531 219.519531 L 263.730469 219.519531 L 263.730469 189.15625 L 270.71875 189.15625 C 275.519531 189.15625 277.582031 191.449219 277.582031 196.140625 " clip-rule="nonzero"/></clipPath><clipPath id="17f912c474"><path d="M 0.621094 0.113281 L 15.230469 0.113281 L 15.230469 30.601562 L 0.621094 30.601562 Z M 0.621094 0.113281 " clip-rule="nonzero"/></clipPath><clipPath id="179a0a664c"><path d="M 5.371094 26.199219 L 8.019531 26.199219 C 9.585938 26.199219 10.421875 25.472656 10.421875 23.214844 L 10.421875 20.5625 C 10.421875 17.738281 9.53125 16.882812 7.433594 16.882812 L 5.371094 16.882812 Z M 5.371094 12.527344 L 7.183594 12.527344 C 8.910156 12.527344 9.957031 11.746094 9.957031 9.308594 L 9.957031 7.621094 C 9.957031 5.453125 9.246094 4.492188 7.59375 4.492188 L 5.371094 4.492188 Z M 14.582031 7.140625 L 14.582031 8.226562 C 14.582031 11.355469 13.65625 13.347656 11.59375 14.339844 C 14.082031 15.335938 15.042969 17.628906 15.042969 20.847656 L 15.042969 23.320312 C 15.042969 28.011719 12.640625 30.519531 8.019531 30.519531 L 0.730469 30.519531 L 0.730469 0.15625 L 7.71875 0.15625 C 12.519531 0.15625 14.582031 2.449219 14.582031 7.140625 " clip-rule="nonzero"/></clipPath><clipPath id="be9f0334fe"><rect x="0" width="16" y="0" height="31"/></clipPath><clipPath id="b39a6dd7ce"><path d="M 280.601562 214.933594 L 285.066406 214.933594 L 285.066406 219.539062 L 280.601562 219.539062 Z M 280.601562 214.933594 " clip-rule="nonzero"/></clipPath><clipPath id="b479481885"><path d="M 0.601562 0.933594 L 5.066406 0.933594 L 5.066406 5.539062 L 0.601562 5.539062 Z M 0.601562 0.933594 " clip-rule="nonzero"/></clipPath><clipPath id="5c3b27bef4"><rect x="0" width="6" y="0" height="6"/></clipPath></defs><g clip-path="url(#4f5d5e7e1e)"><g clip-path="url(#9e459623c2)"><g transform="matrix(1, 0, 0, 1, 9, 10)"><g clip-path="url(#7b5ff64358)"><g clip-path="url(#49a9751726)"><g clip-path="url(#dcbf79af55)"><rect x="-73.845" width="424.44" fill="#ffffff" height="330.479991" y="-60.489999" fill-opacity="1"/></g></g></g></g></g></g><g clip-path="url(#656e3b02b9)"><g clip-path="url(#d1c31915ab)"><g transform="matrix(1, 0, 0, 1, 100, 8)"><g clip-path="url(#01ee8f7dfa)"><g clip-path="url(#66a6e2fbe0)"><g clip-path="url(#6a1623d4bc)"><rect x="-164.845" width="424.44" fill="#ffffff" height="330.479991" y="-58.489999" fill-opacity="1"/></g></g></g></g></g></g><g clip-path="url(#9a4ad16fb9)"><g transform="matrix(1, 0, 0, 1, 10, 189)"><g clip-path="url(#a200745435)"><g clip-path="url(#609f2e8052)"><rect x="-74.845" width="424.44" fill="#ffffff" height="330.479991" y="-239.489999" fill-opacity="1"/></g></g></g></g><g clip-path="url(#1e315fc224)"><g clip-path="url(#8446efff28)"><g transform="matrix(1, 0, 0, 1, 41, 189)"><g clip-path="url(#fb795ec0e3)"><g clip-path="url(#f122e5c86b)"><g clip-path="url(#22dfa54634)"><rect x="-105.845" width="424.44" fill="#ffffff" height="330.479991" y="-239.489999" fill-opacity="1"/></g></g></g></g></g></g><g clip-path="url(#598375765d)"><g transform="matrix(1, 0, 0, 1, 76, 189)"><g clip-path="url(#23c3189e03)"><g clip-path="url(#6c0cbf7bb1)"><rect x="-140.845" width="424.44" fill="#ffffff" height="330.479991" y="-239.489999" fill-opacity="1"/></g></g></g></g><g clip-path="url(#caef69dc03)"><g clip-path="url(#3ab68ec403)"><g transform="matrix(1, 0, 0, 1, 108, 189)"><g clip-path="url(#75970e8e04)"><g clip-path="url(#a59bcf95c8)"><g clip-path="url(#af54d45b07)"><rect x="-172.845" width="424.44" fill="#ffffff" height="330.479991" y="-239.489999" fill-opacity="1"/></g></g></g></g></g></g><g clip-path="url(#7ff4c10c41)"><g transform="matrix(1, 0, 0, 1, 142, 189)"><g clip-path="url(#c92ecea5ec)"><g clip-path="url(#684c2c4e99)"><rect x="-206.845" width="424.44" fill="#ffffff" height="330.479991" y="-239.489999" fill-opacity="1"/></g></g></g></g><g clip-path="url(#4190521b36)"><g transform="matrix(1, 0, 0, 1, 195, 10)"><g clip-path="url(#0371879744)"><g clip-path="url(#abb56e193b)"><rect x="-259.845" width="424.44" fill="#ffffff" height="330.479991" y="-60.489999" fill-opacity="1"/></g></g></g></g><g clip-path="url(#d7d8cd8785)"><g transform="matrix(1, 0, 0, 1, 235, 10)"><g clip-path="url(#7ba27d6ac0)"><g clip-path="url(#66a9216985)"><rect x="-299.845" width="424.44" fill="#ffffff" height="330.479991" y="-60.489999" fill-opacity="1"/></g></g></g></g><g clip-path="url(#e6cbeb0208)"><g transform="matrix(1, 0, 0, 1, 198, 189)"><g clip-path="url(#c3bcf8a482)"><g clip-path="url(#e1bb278bf5)"><rect x="-262.845" width="424.44" fill="#ffffff" height="330.479991" y="-239.489999" fill-opacity="1"/></g></g></g></g><g clip-path="url(#139ce8ca91)"><g clip-path="url(#713c1e3a49)"><g transform="matrix(1, 0, 0, 1, 228, 189)"><g clip-path="url(#e5c56c651a)"><g clip-path="url(#c51dd42d14)"><g clip-path="url(#8f8386acdd)"><rect x="-292.845" width="424.44" fill="#ffffff" height="330.479991" y="-239.489999" fill-opacity="1"/></g></g></g></g></g></g><g clip-path="url(#99ba5f0d31)"><g clip-path="url(#69363bacdc)"><g transform="matrix(1, 0, 0, 1, 263, 189)"><g clip-path="url(#be9f0334fe)"><g clip-path="url(#17f912c474)"><g clip-path="url(#179a0a664c)"><rect x="-327.845" width="424.44" fill="#ffffff" height="330.479991" y="-239.489999" fill-opacity="1"/></g></g></g></g></g></g><g clip-path="url(#b39a6dd7ce)"><g transform="matrix(1, 0, 0, 1, 280, 214)"><g clip-path="url(#5c3b27bef4)"><g clip-path="url(#b479481885)"><rect x="-344.845" width="424.44" fill="#ffffff" height="330.479991" y="-264.489999" fill-opacity="1"/></g></g></g></g></svg>